# xmcd
#
# Track frame offsets:
# 150
# 15530
# 29613
# 46506
# 61798
# 75386
# 90566
# 102831
# 118362
# 138834
# 151936
# 164822
# 181460
# 197720
# 214601
# 228431
# 245420
# 259493
# 271163
# 286614
# 301902
#
# Disc length: 4230 seconds
#
#
# Revision: 0
# Processed by: cddbd v1.5.2PL0 Copyright (c) Steve Scherf et al.
# Submitted via: FreeRIP 2.941 
#
DISCID=16108415
DTITLE=DANIEL LEZICA - SU HISTORIA
DYEAR=1900
DGENRE=CUMBIA
TTITLE0=AL RITMO DEL AMOR
TTITLE1=TE ROBARE EL CORAZÓN
TTITLE2=EL AMOR DEL CANTANTE
TTITLE3=LADRON DE AMOR
TTITLE4=HIELO Y FUEGO
TTITLE5=HAY OTRA EN TU LUGAR
TTITLE6=MIRAME A LOS OJOS GITANA
TTITLE7=AMOR INFIEL
TTITLE8=A LLEGADO UN ANGEL
TTITLE9=DOS AL TELEFONO
TTITLE10=CELIA
TTITLE11=LA LLAVE
TTITLE12=BRILLANTE
TTITLE13=POR ESO TE QUIERO
TTITLE14=ALGO DE MI
TTITLE15=MI NIÑA VENENO
TTITLE16=MI GRAN AMOR
TTITLE17=NUESTRA CANCION
TTITLE18=LA VUELTA
TTITLE19=PECADORA
TTITLE20=TRES DECEOS
EXTD=
EXTT0=
EXTT1=
EXTT2=
EXTT3=
EXTT4=
EXTT5=
EXTT6=
EXTT7=
EXTT8=
EXTT9=
EXTT10=
EXTT11=
EXTT12=
EXTT13=
EXTT14=
EXTT15=
EXTT16=
EXTT17=
EXTT18=
EXTT19=
EXTT20=
PLAYORDER=
